<?xml version="1.0" encoding="UTF-8"?>
<svg id="Layer_2" data-name="Layer 2" xmlns="http://www.w3.org/2000/svg" viewBox="0 0 76.54 76.53">
  <defs>
    <style>
      .cls-1 {
        fill: #f26722;
      }

      .cls-2 {
        fill: #fff;
      }

      .cls-3 {
        fill: #231f20;
      }
    </style>
  </defs>
  <g id="Layer_1-2" data-name="Layer 1">
    <g>
      <path class="cls-3" d="M76.54,38.26c0,21.14-17.14,38.27-38.26,38.27S0,59.4,0,38.26,17.14,0,38.27,0s38.26,17.13,38.26,38.26Z"/>
      <path class="cls-2" d="M65.53,42.15l-21.93,15.97c-2.95,2.15-7.73,2.15-10.67,0l-21.93-15.97c-2.95-2.15-2.95-5.63,0-7.78l21.93-15.97c2.94-2.15,7.71-2.15,10.67,0l21.93,15.97c2.94,2.15,2.94,5.64,0,7.78Z"/>
      <path class="cls-1" d="M40.86,28l2.13,3.88c.38,.7,.96,1.27,1.65,1.65l3.88,2.13c2.05,1.13,2.05,4.07,0,5.2l-3.88,2.13c-.7,.38-1.27,.96-1.65,1.65l-2.13,3.87c-1.13,2.05-4.08,2.05-5.21,0l-2.13-3.87c-.38-.7-.96-1.27-1.65-1.65l-3.87-2.13c-2.05-1.13-2.05-4.08,0-5.21l3.87-2.13c.7-.38,1.27-.95,1.65-1.65l2.13-3.88c1.13-2.05,4.07-2.05,5.2,0Z"/>
    </g>
  </g>
</svg>