<?xml version="1.0" encoding="utf-8"?>
<!-- Generator: Adobe Illustrator 27.0.0, SVG Export Plug-In . SVG Version: 6.00 Build 0)  -->
<svg version="1.1" id="Layer_1" xmlns="http://www.w3.org/2000/svg" xmlns:xlink="http://www.w3.org/1999/xlink" x="0px" y="0px"
	 viewBox="0 0 800 800" style="enable-background:new 0 0 800 800;" xml:space="preserve">
<style type="text/css">
	.st0{fill:#FFFFFF;}
</style>
<path class="st0" d="M400,50C206.7,50,50,206.7,50,400s156.7,350,350,350s350-156.7,350-350S593.3,50,400,50z M263.6,561.2
	c-7.6,13.2-24.3,17.7-37.5,10.1c-13.1-7.6-17.7-24.5-10.1-37.7l20.5-35.7c5.4-2.3,16-4.9,30-0.7c9.2,2.7,19.7,11.1,24.4,16.3
	L263.6,561.2z M460.8,483H202.5c-15.2,0-27.5-12.3-27.5-27.6c0-15.2,12.3-27.6,27.5-27.6h74.2l92.1-160.7l-29.1-50.8
	c-7.6-13.2-3-30.1,10.1-37.7c13.2-7.6,29.9-3.1,37.5,10.1l13.2,23l13.2-23c7.6-13.2,24.4-17.8,37.5-10.1
	c13.1,7.6,17.7,24.5,10.1,37.7L340,427.9h81.4c23.6,0,37.8,15.3,41.6,29.5C465.5,466.8,463.1,477.1,460.8,483z M597.5,483h-41.8
	l29,50.6c7.6,13.2,3,30.1-10.1,37.7c-13.1,7.6-29.9,3.1-37.5-10.1c-34.7-60.5-69.3-121-104-181.6c-10.3-18-13.7-36.4-11.4-58.2
	c1.8-17,13.6-32,19.7-37.8l82.7,144.4h73.4c15.2,0,27.5,12.3,27.5,27.6C625,470.7,612.7,483,597.5,483z"/>
</svg>
